<svg width="16" height="16" viewBox="0 0 16 16" fill="none" xmlns="http://www.w3.org/2000/svg">
<path fill-rule="evenodd" clip-rule="evenodd" d="M1.5 8C1.5 7.72386 1.72386 7.5 2 7.5H4C4.27614 7.5 4.5 7.72386 4.5 8C4.5 8.27614 4.27614 8.5 4 8.5H2C1.72386 8.5 1.5 8.27614 1.5 8Z" fill="black"/>
<path fill-rule="evenodd" clip-rule="evenodd" d="M8 1.5C8.27614 1.5 8.5 1.72386 8.5 2V4C8.5 4.27614 8.27614 4.5 8 4.5C7.72386 4.5 7.5 4.27614 7.5 4V2C7.5 1.72386 7.72386 1.5 8 1.5Z" fill="black"/>
<path fill-rule="evenodd" clip-rule="evenodd" d="M3.37978 3.37978C3.57504 3.18452 3.89162 3.18452 4.08689 3.37978L5.55355 4.84645C5.74882 5.04171 5.74882 5.35829 5.55355 5.55355C5.35829 5.74882 5.04171 5.74882 4.84645 5.55355L3.37978 4.08689C3.18452 3.89162 3.18452 3.57504 3.37978 3.37978Z" fill="black"/>
<path fill-rule="evenodd" clip-rule="evenodd" d="M12.6202 3.37978C12.8155 3.57504 12.8155 3.89162 12.6202 4.08689L11.1536 5.55355C10.9583 5.74882 10.6417 5.74882 10.4464 5.55355C10.2512 5.35829 10.2512 5.04171 10.4464 4.84645L11.9131 3.37978C12.1084 3.18452 12.425 3.18452 12.6202 3.37978Z" fill="black"/>
<path fill-rule="evenodd" clip-rule="evenodd" d="M5.55355 10.4464C5.74882 10.6417 5.74882 10.9583 5.55355 11.1536L4.08689 12.6202C3.89162 12.8155 3.57504 12.8155 3.37978 12.6202C3.18452 12.425 3.18452 12.1084 3.37978 11.9131L4.84645 10.4464C5.04171 10.2512 5.35829 10.2512 5.55355 10.4464Z" fill="black"/>
<path fill-rule="evenodd" clip-rule="evenodd" d="M7.64645 7.64645C7.78036 7.51253 7.97845 7.46577 8.15811 7.52566L14.1581 9.52566C14.35 9.58961 14.4844 9.76283 14.4987 9.96456C14.5131 10.1663 14.4045 10.3568 14.2236 10.4472L11.706 11.706L10.4472 14.2236C10.3568 14.4045 10.1663 14.5131 9.96456 14.4987C9.76283 14.4844 9.58961 14.35 9.52566 14.1581L7.52566 8.15811C7.46577 7.97845 7.51253 7.78036 7.64645 7.64645ZM8.79057 8.79057L10.0926 12.6967L10.8861 11.1097C10.9345 11.013 11.013 10.9345 11.1097 10.8861L12.6967 10.0926L8.79057 8.79057Z" fill="black"/>
</svg>
